<?xml version="1.0" encoding="UTF-8" standalone="no"?>
<svg width="220px" height="140px" viewBox="0 0 220 140" version="1.1" xmlns="http://www.w3.org/2000/svg" xmlns:xlink="http://www.w3.org/1999/xlink">
    <!-- Generator: Sketch 42 (36781) - http://www.bohemiancoding.com/sketch -->
    <title>work2</title>
    <desc>Created with Sketch.</desc>
    <defs>
        <path d="M148,83.7262613 L148,116.009155 C148,117.108669 147.102184,118 145.999201,118 L80.0007992,118 C78.8957883,118 78,117.102691 78,116.008247 L78,17.9917534 C78,16.8917384 78.8978162,16 80.0007992,16 L145.999201,16 C147.104212,16 148,16.8989206 148,18.0056564 L148,76.2809893" id="path-1"></path>
        <mask id="mask-2" maskContentUnits="userSpaceOnUse" maskUnits="objectBoundingBox" x="0" y="0" width="70" height="102" fill="white">
            <use xlink:href="#path-1"></use>
        </mask>
        <path d="M142,89.7262613 L142,122.009155 C142,123.108669 141.102184,124 139.999201,124 L74.0007992,124 C72.8957883,124 72,123.102691 72,122.008247 L72,23.9917534 C72,22.8917384 72.8978162,22 74.0007992,22 L139.999201,22 C141.104212,22 142,22.8989206 142,24.0056564 L142,82.2809893" id="path-3"></path>
        <mask id="mask-4" maskContentUnits="userSpaceOnUse" maskUnits="objectBoundingBox" x="0" y="0" width="70" height="102" fill="white">
            <use xlink:href="#path-3"></use>
        </mask>
    </defs>
    <g id="logo" stroke="none" stroke-width="1" fill="none" fill-rule="evenodd">
        <g id="work2">
            <use id="Rectangle-6" stroke="#7100D8" mask="url(#mask-2)" stroke-width="4" fill="#EBD6FE" xlink:href="#path-1"></use>
            <use id="Rectangle-6" stroke="#7100D8" mask="url(#mask-4)" stroke-width="4" fill="#FFFFFF" xlink:href="#path-3"></use>
            <g id="Group-2" transform="translate(102.000000, 29.000000)" fill="#7100D8">
                <path d="M0,2.89655318 L5.06255624,0.00258352333 L5.06772036,2.16893137 L1.90943234,3.97400947 L1.91459646,6.16449844 L3.4117601,5.30854751 L4.64813583,6.00398117 L3.28480889,6.78284992 L1.9180392,7.56468338 L1.9180392,7.56595396 L0.0133406361,8.65442199 L0,2.89655318 Z M5.91033215,0 L10.5614804,2.62460559 L8.65678182,3.71349714 L5.91549626,2.16634784 L5.91033215,0 Z M0.438433551,9.37539441 L2.34313212,8.28692638 L5.08484801,9.83407568 L5.09001213,12 L0.438433551,9.37539441 Z M9.08239114,4.43421545 L10.9866594,3.34532389 L11,9.10361623 L5.93787411,11.9975859 L5.93270999,9.83123804 L9.09056766,8.02615994 L9.08540354,5.83524745 L7.58867024,6.69119837 L6.35918,5.99195296 L9.08239114,4.43548603 L9.08239114,4.43421545 Z" id="Combined-Shape"></path>
            </g>
            <ellipse id="Oval" fill="#3F335D" cx="72.5" cy="119.5" rx="10" ry="10"></ellipse>
            <rect id="Rectangle-8" fill="#EBD6FE" x="80" y="47" width="55" height="2" rx="1"></rect>
            <rect id="Rectangle-8" fill="#EBD6FE" x="80" y="52" width="55" height="2" rx="1"></rect>
            <rect id="Rectangle-8" fill="#EBD6FE" x="80" y="57" width="15" height="2" rx="1"></rect>
            <rect id="Rectangle-8" fill="#EBD6FE" x="104" y="57" width="20" height="2" rx="1"></rect>
            <rect id="Rectangle-8" fill="#EBD6FE" x="80" y="62" width="55" height="2" rx="1"></rect>
            <rect id="Rectangle-8" fill="#EBD6FE" x="80" y="67" width="35" height="2" rx="1"></rect>
            <path d="M96.1820716,101.71556 C96.7711736,101.704767 97.3057442,101.689266 97.7944072,101.666005 C98.5370835,101.630653 99.173721,101.577378 99.7345934,101.495467 C101.205439,101.28066 102.15524,100.86892 103.129973,100.067048 C103.460775,99.7949105 104.0043,99.1874742 104.423965,98.6385354 C104.638481,98.3579395 104.791501,98.1307123 104.865427,97.9699805 C105.195916,97.2514195 104.487536,96.9638394 103.984081,97.3103339 C102.058629,98.6354948 100.537179,99.6943609 99.3558165,100.535207 C98.7483093,100.967606 98.2307368,101.34235 97.7944072,101.666005 C96.591411,102.558348 96.0059827,103.062333 95.8559619,103.315546 C95.7090788,103.563464 95.6921885,103.875514 95.9982474,104.084176 C96.1649005,104.197795 96.3156394,104.203006 96.5122492,104.169835 C96.6937598,104.13921 96.9410667,104.059467 97.293727,103.925055 C97.7094834,103.766594 99.7567616,102.911297 99.6862851,102.940218 C99.9247727,102.842349 100.145294,102.753282 100.356202,102.669857 C101.67465,102.148344 102.6311,101.844931 103.239201,101.781609 C105.356247,101.561159 107.067513,101.558285 110.938272,101.683005 C111.140362,101.689517 111.140362,101.689517 111.342575,101.695983 C114.310378,101.790523 115.916023,101.796496 117.716581,101.671243 C119.244728,101.564939 120.783994,101.147514 122.676877,100.406835 C123.116698,100.234735 123.391409,100.016874 123.94606,99.4828025 C124.187925,99.2499118 124.294756,99.1518049 124.428225,99.0459574 L123.806854,98.2624406 C123.639793,98.3949289 123.517534,98.5072041 123.252444,98.7624584 C122.793185,99.2046765 122.587049,99.3681535 122.312485,99.4755897 C120.505766,100.182552 119.056276,100.575632 117.647185,100.673654 C115.890126,100.795881 114.309967,100.790003 111.374414,100.69649 C111.172505,100.690033 111.172505,100.690033 110.970477,100.683524 C107.054366,100.557343 105.312887,100.560267 103.13563,100.786987 C102.407112,100.862849 101.390566,101.185325 99.9883804,101.739961 C99.7732369,101.825061 99.5488408,101.915693 99.3066367,102.015087 C99.3285609,102.00609 99.0185578,102.135699 98.6129051,102.304298 C98.9415747,102.064133 99.3149053,101.794887 99.7345934,101.495467 C100.94255,100.633668 102.534542,99.5219019 104.55102,98.1340936 C104.476471,98.1854012 104.442534,98.2002853 104.235079,98.116065 C103.838818,97.9551953 103.863199,97.7558818 103.956913,97.5521257 C103.92324,97.62534 103.800792,97.8071682 103.629528,98.0311879 C103.252455,98.5244156 102.754127,99.0813397 102.494667,99.2947875 C101.642497,99.9958324 100.780241,100.351531 99.3558165,100.535207 C98.5215866,100.642779 97.4945333,100.691346 96.1637535,100.715728 C93.794474,100.759136 92.2261939,100.861479 90.8281285,101.173634 C90.0478132,101.34786 89.3205231,101.587447 88.5365828,101.918628 C87.9215929,102.178901 87.3356989,102.482623 86.7658451,102.838773 C86.4306921,103.048238 86.4296525,103.447003 86.6542765,103.696573 C86.7442973,103.796591 86.8633834,103.870781 86.9988726,103.927549 C87.331101,104.066747 87.6744369,104.095948 87.9345152,103.849207 C88.1285707,103.665103 88.3297414,103.475844 88.5400057,103.279477 C88.7151089,103.115948 88.8950913,102.948803 89.0845155,102.773758 C89.3001605,102.574483 89.528042,102.364969 89.7748914,102.138896 C90.1480463,101.797147 90.4985888,101.475947 90.8281285,101.173634 C95.3241928,97.0490427 95.9107253,96.4402994 96.6759373,95.1301962 C98.0898681,92.7094356 96.1423151,91.9761406 91.2450271,92.922261 L91.4347124,93.9041059 C95.6431914,93.0910584 96.5167677,93.4199784 95.8124412,94.6258408 C95.0715024,95.8943862 94.3997898,96.5472407 89.0994998,101.401436 C88.900869,101.58335 88.7143897,101.754657 88.5365828,101.918628 C88.2973337,102.139259 88.0737862,102.346606 87.8574646,102.54863 C87.6453463,102.746728 87.4422772,102.937773 87.2462545,103.123743 C87.3739508,103.002595 87.380304,103.003136 87.3853069,103.005232 C87.5513495,103.198465 87.5504914,103.527621 87.295834,103.686777 C87.8205875,103.358815 88.359571,103.07941 88.9159059,102.843958 C88.9723891,102.820053 89.028576,102.796657 89.0845155,102.773758 C91.048042,101.969997 92.7068174,101.779231 96.1820716,101.71556 Z" id="Path-3" fill="#3F335D" fill-rule="nonzero"></path>
            <g id="disconnected-chains" transform="translate(67.000000, 114.000000)" fill-rule="nonzero" fill="#FFFFFF">
                <g id="Capa_1">
                    <g id="Group">
                        <path d="M10.9970036,2.57381993 C10.6803811,2.01923895 10.0798748,1.67491525 9.4299399,1.67491525 C9.12410506,1.67491525 8.82114399,1.75271197 8.55450288,1.89982045 L5.18209629,3.75815282 L5.57005447,4.43692643 L8.9426379,2.57859406 C9.09178627,2.49656573 9.26032149,2.45318619 9.43049255,2.45318619 C9.79364793,2.45318619 10.1289499,2.64528006 10.3057527,2.95468746 C10.4363764,3.18330346 10.4683636,3.44841991 10.3957679,3.7013623 C10.3235258,3.9543047 10.1553443,4.16458368 9.92245888,4.29281263 L6.86541477,5.97686733 C6.80718788,5.61119023 6.63343567,5.27394094 6.36155547,5.00687144 C5.88214527,4.53677097 5.12223357,4.37043573 4.48399263,4.59534093 L4.20800073,4.69288521 L4.47610083,5.42493383 L4.75317592,5.32791037 C5.10967743,5.20054945 5.53393346,5.29544625 5.80112722,5.5572208 C5.95529362,5.70873451 6.05286897,5.90065477 6.08377299,6.10863348 C6.07084105,6.1056388 6.05788701,6.10244881 6.04550771,6.09893331 C5.78728894,6.02766848 5.57345877,5.86239658 5.44265829,5.63289085 L5.29855006,5.38294314 L4.60656973,5.764657 L4.7515843,6.01460471 C4.98590661,6.42507188 5.3690015,6.72141551 5.831147,6.84877644 C5.84712956,6.85283445 5.86331106,6.85723968 5.87949256,6.86095048 C5.85506557,6.89128795 5.82900273,6.92021487 5.80132617,6.94738404 L3.27418208,9.42837222 C3.08515471,9.61376059 2.83358981,9.71571009 2.56602025,9.71571009 C2.29827384,9.71571009 2.04670894,9.61376059 1.85803526,9.42837222 C1.66936158,9.24298385 1.56550816,8.99637803 1.56550816,8.73336655 C1.56550816,8.47052867 1.66936158,8.22377095 1.85803526,8.03855618 L4.0529501,5.88407549 L3.49214605,5.33355253 L1.29743017,7.48803322 C0.958480725,7.8210292 0.771774471,8.26326608 0.771774471,8.73334485 C0.771774471,9.20379253 0.958480725,9.64583411 1.29736385,9.97887348 C1.63644593,10.3117392 2.08674268,10.4946538 2.56597604,10.4946538 C3.04520939,10.4946538 3.49550614,10.3117392 3.83458822,9.97887348 L6.36228496,7.49805891 C6.54735538,7.31566522 6.68967303,7.09516525 6.77880393,6.85333357 C6.92525538,6.81505368 7.06450031,6.76002091 7.19388602,6.68840888 L10.3105939,4.97156454 C10.7278424,4.74136439 11.0293445,4.36511908 11.158907,3.91196679 C11.2886243,3.4586192 11.2311269,2.98322377 10.9970036,2.57381993 Z" id="Shape"></path>
                        <path d="M4.12556871,3.24752542 C4.25884989,3.2236707 4.34788161,3.0980339 4.3235814,2.96693462 L3.81736152,0.208329298 C3.79306131,0.0770266344 3.66457505,-0.0103728814 3.53129387,0.0130169492 C3.3977759,0.0368716707 3.3085074,0.162508475 3.33280761,0.294072639 L3.83926427,3.05218402 C3.8633277,3.18377724 3.99157717,3.27091525 4.12556871,3.24752542 Z" id="Shape"></path>
                        <path d="M0.289331924,4.70051332 L3.09921776,4.20310896 C3.23297252,4.17925424 3.32200423,4.05361743 3.29770402,3.92251816 C3.27340381,3.790954 3.14542072,3.70335109 3.01210994,3.72720581 L0.201987315,4.22484262 C0.0687061311,4.248 -0.0205623679,4.37433414 0.00373784355,4.50543341 C0.027564482,4.63676513 0.15605074,4.72413559 0.289331924,4.70051332 Z" id="Shape"></path>
                    </g>
                </g>
            </g>
            <g id="Group-5" transform="translate(146.870058, 81.870058) rotate(45.000000) translate(-146.870058, -81.870058) translate(139.870058, 50.870058)">
                <g id="Group-4" transform="translate(0.000000, -0.000000)">
                    <polygon id="Combined-Shape" fill="#3F335D" fill-rule="nonzero" points="8.65194098 48.25 9.79139043 56.3554534 5.5 61.1207577 1.20860957 56.3554534 2.34805902 48.25"></polygon>
                    <polygon id="Path" fill="#FFFFFF" points="2.79139043 55.8715111 5.5 58.8792423 8.20860957 55.8715111 7.34805902 49.75 3.65194098 49.75"></polygon>
                    <rect id="Rectangle-19" fill="#3F335D" x="5" y="54" width="1" height="6"></rect>
                    <path d="M2.9860833,16 L8.01391453,16 C9.1239019,16 10.0250367,16.9031903 10.00985,18.0065492 L9.59672828,48.0209764 C9.5816606,49.1156849 8.68706861,50 7.59243243,50 L3.4075654,50 C2.31449997,50 1.41824957,49.1093159 1.40326955,48.0209764 L0.990147858,18.0065492 C0.974844401,16.894711 1.86549385,16 2.9860833,16 Z" id="Rectangle-17" fill="#3F335D" fill-rule="nonzero"></path>
                    <path d="M3.40308013,47.9934508 C3.40305191,47.9914005 7.59243243,48 7.59243243,48 C7.59224817,48 8.00975068,18 8.00975068,18 L2.99024716,18 L3.40308013,47.9934508 Z" id="Path" fill="#FFFFFF"></path>
                    <path d="M5.41958545,1.98951966e-13 L5.58041453,1.98951966e-13 C8.62577416,1.98951966e-13 11.0471065,2.46774248 10.9889395,5.51919038 L10.6554496,23.014112 C10.6240057,24.6636655 9.26782547,26 7.62399122,26 L3.37600876,26 C1.72874926,26 0.376025997,24.6653293 0.344550335,23.014112 L0.0110604533,5.51919038 C-0.0470026547,2.47319234 2.37431654,1.98951966e-13 5.41958545,1.98951966e-13 Z" id="Rectangle-17" fill="#3F335D" fill-rule="nonzero"></path>
                    <path d="M2.01069719,5.48107311 L2.34418707,22.9759948 C2.35494183,23.5401907 2.82097043,24 3.37600876,24 L7.62399122,24 C8.17618842,24 8.64510088,23.5379494 8.65581291,22.9759948 L8.98930279,5.48107311 C9.02613327,3.54894141 7.50632235,2 5.58041453,2 L5.41958545,2 C3.49476624,2 1.97395162,3.5533958 2.01069719,5.48107311 Z" id="Path" fill="#FFFFFF"></path>
                </g>
                <path d="M12,9 L14,9 L14,26.0066023 C14,26.5552407 13.5561352,27 13,27 C12.4477153,27 12,26.5550537 12,26.0066023 L12,9 Z M10,7 L12.9906311,7 C13.5480902,7 14,7.44386482 14,8 L14,9 L10,9 L10,7 Z" id="Combined-Shape" fill="#3F335D"></path>
            </g>
        </g>
    </g>
</svg>