<?xml version="1.0" encoding="UTF-8" standalone="no"?>
<svg width="220px" height="140px" viewBox="0 0 220 140" version="1.1" xmlns="http://www.w3.org/2000/svg" xmlns:xlink="http://www.w3.org/1999/xlink">
    <!-- Generator: Sketch 42 (36781) - http://www.bohemiancoding.com/sketch -->
    <title>work6</title>
    <desc>Created with Sketch.</desc>
    <defs>
        <rect id="path-1" x="50" y="26" width="100" height="70" rx="2"></rect>
        <mask id="mask-2" maskContentUnits="userSpaceOnUse" maskUnits="objectBoundingBox" x="-2" y="-2" width="104" height="74">
            <rect x="48" y="24" width="104" height="74" fill="white"></rect>
            <use xlink:href="#path-1" fill="black"></use>
        </mask>
        <rect id="path-3" x="70" y="45" width="92" height="19"></rect>
        <mask id="mask-4" maskContentUnits="userSpaceOnUse" maskUnits="objectBoundingBox" x="0" y="0" width="92" height="19" fill="white">
            <use xlink:href="#path-3"></use>
        </mask>
        <rect id="path-5" x="70" y="69" width="92" height="19"></rect>
        <mask id="mask-6" maskContentUnits="userSpaceOnUse" maskUnits="objectBoundingBox" x="0" y="0" width="92" height="19" fill="white">
            <use xlink:href="#path-5"></use>
        </mask>
        <rect id="path-7" x="70" y="93" width="92" height="19"></rect>
        <mask id="mask-8" maskContentUnits="userSpaceOnUse" maskUnits="objectBoundingBox" x="0" y="0" width="92" height="19" fill="white">
            <use xlink:href="#path-7"></use>
        </mask>
    </defs>
    <g id="logo" stroke="none" stroke-width="1" fill="none" fill-rule="evenodd">
        <g id="work6">
            <g id="Rectangle-14">
                <use fill="#FFFFFF" fill-rule="evenodd" xlink:href="#path-1"></use>
                <use stroke="#7100D8" mask="url(#mask-2)" stroke-width="4" xlink:href="#path-1"></use>
            </g>
            <path d="M50,27.992017 C50,26.8918564 50.8950515,26 51.9975379,26 L148.002462,26 C149.105672,26 150,26.9001762 150,27.992017 L150,37 L50,37 L50,27.992017 Z" id="Rectangle-15" fill="#EBD6FE"></path>
            <rect id="Rectangle" fill="#7100D8" x="50" y="37" width="101" height="2"></rect>
            <path d="M57,34 C55.8954305,34 55,33.1045695 55,32 C55,30.8954305 55.8954305,30 57,30 C58.1045695,30 59,30.8954305 59,32 C59,33.1045695 58.1045695,34 57,34 Z M63,34 C61.8954305,34 61,33.1045695 61,32 C61,30.8954305 61.8954305,30 63,30 C64.1045695,30 65,30.8954305 65,32 C65,33.1045695 64.1045695,34 63,34 Z M69,34 C67.8954305,34 67,33.1045695 67,32 C67,30.8954305 67.8954305,30 69,30 C70.1045695,30 71,30.8954305 71,32 C71,33.1045695 70.1045695,34 69,34 Z" id="Combined-Shape" fill="#7100D8"></path>
            <use id="Rectangle-16" stroke="#3F335D" mask="url(#mask-4)" stroke-width="4" fill="#FFFFFF" xlink:href="#path-3"></use>
            <use id="Rectangle-16" stroke="#3F335D" mask="url(#mask-6)" stroke-width="4" fill="#FFFFFF" xlink:href="#path-5"></use>
            <use id="Rectangle-16" stroke="#3F335D" mask="url(#mask-8)" stroke-width="4" fill="#FFFFFF" xlink:href="#path-7"></use>
            <path d="M79.48,81.9 C79.82,81.9 80.07,81.66 80.07,81.28 L80.07,79.07 L81.87,75.85 C81.93,75.74 81.96,75.63 81.96,75.53 C81.96,75.22 81.74,75 81.42,75 C81.2,75 81.02,75.11 80.9,75.34 L79.51,77.9 L79.48,77.9 L78.08,75.34 C77.96,75.12 77.79,75 77.56,75 C77.24,75 77,75.22 77,75.53 C77,75.63 77.03,75.74 77.09,75.85 L78.89,79.07 L78.89,81.28 C78.89,81.66 79.14,81.9 79.48,81.9 Z M84.78,81.96 C83.8,81.96 83.06,81.47 82.79,80.63 C82.68,80.29 82.63,79.97 82.63,79.44 C82.63,78.91 82.68,78.59 82.79,78.25 C83.06,77.41 83.8,76.92 84.78,76.92 C85.75,76.92 86.49,77.41 86.76,78.25 C86.87,78.59 86.92,78.91 86.92,79.44 C86.92,79.97 86.87,80.29 86.76,80.63 C86.49,81.47 85.75,81.96 84.78,81.96 Z M84.78,80.96 C85.23,80.96 85.54,80.73 85.68,80.33 C85.76,80.08 85.78,79.85 85.78,79.44 C85.78,79.03 85.76,78.81 85.68,78.55 C85.54,78.15 85.23,77.92 84.78,77.92 C84.33,77.92 84.01,78.15 83.87,78.55 C83.79,78.81 83.77,79.03 83.77,79.44 C83.77,79.85 83.79,80.08 83.87,80.33 C84.01,80.73 84.33,80.96 84.78,80.96 Z M91.54,81.9 C91.87,81.9 92.1,81.68 92.1,81.31 L92.1,77.57 C92.1,77.2 91.87,76.98 91.54,76.98 C91.21,76.98 90.98,77.2 90.98,77.57 L90.98,79.91 C90.98,80.53 90.66,80.96 90.07,80.96 C89.46,80.96 89.18,80.53 89.18,79.91 L89.18,77.57 C89.18,77.2 88.95,76.98 88.62,76.98 C88.29,76.98 88.06,77.2 88.06,77.57 L88.06,80.17 C88.06,81.2 88.68,81.96 89.71,81.96 C90.28,81.96 90.72,81.75 90.97,81.4 L90.98,81.4 C91.03,81.69 91.21,81.9 91.54,81.9 Z M94.68,77.59 L94.69,77.59 C94.9,77.22 95.34,76.92 95.91,76.92 C96.18,76.92 96.37,76.98 96.52,77.05 C96.73,77.16 96.82,77.32 96.82,77.51 C96.82,77.84 96.6,78.08 96.27,78.08 C96.19,78.08 96.1,78.06 96.01,78.03 C95.87,77.99 95.71,77.95 95.56,77.95 C94.94,77.95 94.68,78.44 94.68,79.17 L94.68,81.31 C94.68,81.68 94.45,81.9 94.12,81.9 C93.8,81.9 93.56,81.68 93.56,81.31 L93.56,77.57 C93.56,77.2 93.79,76.98 94.12,76.98 C94.45,76.98 94.68,77.2 94.68,77.57 L94.68,77.59 Z M100.17,81.32 C100.17,81.69 100.4,81.9 100.72,81.9 C101.03,81.9 101.26,81.69 101.26,81.32 L101.26,77.08 L101.3,77.08 L103.79,81.32 C104.01,81.7 104.23,81.9 104.58,81.9 C104.98,81.9 105.24,81.63 105.24,81.19 L105.24,75.58 C105.24,75.21 105.01,75 104.7,75 C104.38,75 104.15,75.21 104.15,75.58 L104.15,79.82 L104.12,79.82 L101.62,75.58 C101.4,75.2 101.18,75 100.84,75 C100.43,75 100.17,75.27 100.17,75.71 L100.17,81.32 Z M110.78,81.05 C110.84,81.16 110.87,81.27 110.87,81.38 C110.87,81.68 110.63,81.9 110.31,81.9 C110.11,81.9 109.95,81.83 109.84,81.67 L109.68,81.43 L109.67,81.43 C109.39,81.76 108.9,81.96 108.25,81.96 C107.11,81.96 106.5,81.42 106.5,80.5 C106.5,79.46 107.23,78.96 108.42,78.96 L109.41,78.96 C109.45,78.96 109.47,78.94 109.47,78.9 L109.47,78.78 C109.47,78.22 109.15,77.89 108.39,77.89 C108.05,77.89 107.72,77.99 107.51,78.09 C107.41,78.13 107.31,78.15 107.22,78.15 C106.95,78.15 106.76,77.97 106.76,77.69 C106.76,77.53 106.84,77.35 107.04,77.25 C107.35,77.07 107.85,76.92 108.51,76.92 C109.88,76.92 110.53,77.6 110.53,78.79 L110.53,80.31 C110.53,80.56 110.56,80.66 110.63,80.79 L110.78,81.05 Z M108.41,81.05 C109.06,81.05 109.47,80.8 109.47,80.29 L109.47,79.86 C109.47,79.82 109.45,79.8 109.41,79.8 L108.61,79.8 C107.87,79.8 107.57,80.01 107.57,80.45 C107.57,80.85 107.86,81.05 108.41,81.05 Z M111.95,81.31 C111.95,81.68 112.18,81.9 112.51,81.9 C112.84,81.9 113.07,81.68 113.07,81.31 L113.07,78.97 C113.07,78.35 113.41,77.92 113.99,77.92 C114.59,77.92 114.9,78.35 114.9,78.97 L114.9,81.31 C114.9,81.68 115.13,81.9 115.46,81.9 C115.79,81.9 116.02,81.68 116.02,81.31 L116.02,78.97 C116.02,78.35 116.36,77.92 116.94,77.92 C117.54,77.92 117.85,78.35 117.85,78.97 L117.85,81.31 C117.85,81.68 118.08,81.9 118.41,81.9 C118.74,81.9 118.97,81.68 118.97,81.31 L118.97,78.71 C118.97,77.68 118.34,76.92 117.22,76.92 C116.53,76.92 116.05,77.16 115.68,77.56 L115.67,77.56 C115.38,77.15 114.92,76.92 114.35,76.92 C113.71,76.92 113.29,77.18 113.08,77.48 L113.07,77.48 C113.02,77.19 112.84,76.98 112.51,76.98 C112.18,76.98 111.95,77.2 111.95,77.57 L111.95,81.31 Z M122.31,81.96 C121.28,81.96 120.56,81.46 120.29,80.62 C120.19,80.31 120.12,79.94 120.12,79.44 C120.12,78.94 120.18,78.56 120.28,78.25 C120.55,77.41 121.29,76.92 122.25,76.92 C123.24,76.92 123.96,77.43 124.23,78.25 C124.33,78.57 124.39,78.95 124.39,79.41 C124.39,79.64 124.25,79.8 124,79.8 L121.31,79.8 C121.27,79.8 121.25,79.82 121.25,79.86 C121.25,80 121.28,80.12 121.32,80.23 C121.48,80.7 121.86,80.96 122.41,80.96 C122.82,80.96 123.09,80.84 123.4,80.63 C123.53,80.54 123.66,80.47 123.81,80.47 C124.1,80.47 124.28,80.67 124.28,80.94 C124.28,81.13 124.2,81.26 124.05,81.38 C123.62,81.73 123.09,81.96 122.31,81.96 Z M123.26,78.9 C123.26,78.73 123.24,78.61 123.2,78.49 C123.07,78.1 122.71,77.87 122.26,77.87 C121.8,77.87 121.44,78.1 121.31,78.49 C121.27,78.61 121.25,78.73 121.25,78.9 C121.25,78.94 121.27,78.96 121.31,78.96 L123.2,78.96 C123.24,78.96 123.26,78.94 123.26,78.9 Z M125.39,81.24 C125.39,81.63 125.71,81.95 126.1,81.95 C126.49,81.95 126.81,81.63 126.81,81.24 C126.81,80.85 126.49,80.53 126.1,80.53 C125.71,80.53 125.39,80.85 125.39,81.24 Z M131.5,75 C131.83,75 132.06,75.22 132.06,75.59 L132.06,81.31 C132.06,81.68 131.83,81.9 131.5,81.9 C131.17,81.9 130.99,81.7 130.94,81.39 L130.93,81.39 C130.7,81.72 130.31,81.96 129.63,81.96 C128.83,81.96 128.23,81.5 127.98,80.74 C127.86,80.37 127.81,79.98 127.81,79.44 C127.81,78.9 127.86,78.51 127.98,78.14 C128.23,77.38 128.83,76.92 129.63,76.92 C130.31,76.92 130.72,77.18 130.93,77.49 L130.94,77.49 L130.94,75.59 C130.94,75.22 131.17,75 131.5,75 Z M129.94,77.92 C129.52,77.92 129.2,78.1 129.05,78.56 C128.98,78.77 128.95,79.06 128.95,79.44 C128.95,79.82 128.98,80.11 129.05,80.32 C129.2,80.78 129.52,80.96 129.94,80.96 C130.37,80.96 130.69,80.78 130.84,80.32 C130.91,80.11 130.94,79.82 130.94,79.44 C130.94,79.06 130.91,78.77 130.84,78.56 C130.69,78.1 130.37,77.92 129.94,77.92 Z M137.58,81.05 C137.64,81.16 137.67,81.27 137.67,81.38 C137.67,81.68 137.43,81.9 137.11,81.9 C136.91,81.9 136.75,81.83 136.64,81.67 L136.48,81.43 L136.47,81.43 C136.19,81.76 135.7,81.96 135.05,81.96 C133.91,81.96 133.3,81.42 133.3,80.5 C133.3,79.46 134.03,78.96 135.22,78.96 L136.21,78.96 C136.25,78.96 136.27,78.94 136.27,78.9 L136.27,78.78 C136.27,78.22 135.95,77.89 135.19,77.89 C134.85,77.89 134.52,77.99 134.31,78.09 C134.21,78.13 134.11,78.15 134.02,78.15 C133.75,78.15 133.56,77.97 133.56,77.69 C133.56,77.53 133.64,77.35 133.84,77.25 C134.15,77.07 134.65,76.92 135.31,76.92 C136.68,76.92 137.33,77.6 137.33,78.79 L137.33,80.31 C137.33,80.56 137.36,80.66 137.43,80.79 L137.58,81.05 Z M135.21,81.05 C135.86,81.05 136.27,80.8 136.27,80.29 L136.27,79.86 C136.27,79.82 136.25,79.8 136.21,79.8 L135.41,79.8 C134.67,79.8 134.37,80.01 134.37,80.45 C134.37,80.85 134.66,81.05 135.21,81.05 Z M139.31,83.7 C138.98,83.7 138.75,83.48 138.75,83.11 L138.75,77.57 C138.75,77.2 138.98,76.98 139.31,76.98 C139.64,76.98 139.82,77.18 139.87,77.49 L139.88,77.49 C140.11,77.16 140.5,76.92 141.18,76.92 C141.98,76.92 142.58,77.38 142.83,78.14 C142.95,78.51 143,78.9 143,79.44 C143,79.98 142.95,80.37 142.83,80.74 C142.58,81.5 141.98,81.96 141.18,81.96 C140.5,81.96 140.09,81.7 139.88,81.39 L139.87,81.39 L139.87,83.11 C139.87,83.48 139.64,83.7 139.31,83.7 Z M140.87,80.96 C141.29,80.96 141.61,80.78 141.76,80.32 C141.83,80.11 141.86,79.82 141.86,79.44 C141.86,79.06 141.83,78.77 141.76,78.56 C141.61,78.1 141.29,77.92 140.87,77.92 C140.44,77.92 140.12,78.1 139.97,78.56 C139.9,78.77 139.87,79.06 139.87,79.44 C139.87,79.82 139.9,80.11 139.97,80.32 C140.12,80.78 140.44,80.96 140.87,80.96 Z M144.76,83.7 C144.43,83.7 144.2,83.48 144.2,83.11 L144.2,77.57 C144.2,77.2 144.43,76.98 144.76,76.98 C145.09,76.98 145.27,77.18 145.32,77.49 L145.33,77.49 C145.56,77.16 145.95,76.92 146.63,76.92 C147.43,76.92 148.03,77.38 148.28,78.14 C148.4,78.51 148.45,78.9 148.45,79.44 C148.45,79.98 148.4,80.37 148.28,80.74 C148.03,81.5 147.43,81.96 146.63,81.96 C145.95,81.96 145.54,81.7 145.33,81.39 L145.32,81.39 L145.32,83.11 C145.32,83.48 145.09,83.7 144.76,83.7 Z M146.32,80.96 C146.74,80.96 147.06,80.78 147.21,80.32 C147.28,80.11 147.31,79.82 147.31,79.44 C147.31,79.06 147.28,78.77 147.21,78.56 C147.06,78.1 146.74,77.92 146.32,77.92 C145.89,77.92 145.57,78.1 145.42,78.56 C145.35,78.77 145.32,79.06 145.32,79.44 C145.32,79.82 145.35,80.11 145.42,80.32 C145.57,80.78 145.89,80.96 146.32,80.96 Z" id="Your-Name.dapp" fill="#3F335D"></path>
            <path d="M79.48,57.9 C79.82,57.9 80.07,57.66 80.07,57.28 L80.07,55.07 L81.87,51.85 C81.93,51.74 81.96,51.63 81.96,51.53 C81.96,51.22 81.74,51 81.42,51 C81.2,51 81.02,51.11 80.9,51.34 L79.51,53.9 L79.48,53.9 L78.08,51.34 C77.96,51.12 77.79,51 77.56,51 C77.24,51 77,51.22 77,51.53 C77,51.63 77.03,51.74 77.09,51.85 L78.89,55.07 L78.89,57.28 C78.89,57.66 79.14,57.9 79.48,57.9 Z M84.78,57.96 C83.8,57.96 83.06,57.47 82.79,56.63 C82.68,56.29 82.63,55.97 82.63,55.44 C82.63,54.91 82.68,54.59 82.79,54.25 C83.06,53.41 83.8,52.92 84.78,52.92 C85.75,52.92 86.49,53.41 86.76,54.25 C86.87,54.59 86.92,54.91 86.92,55.44 C86.92,55.97 86.87,56.29 86.76,56.63 C86.49,57.47 85.75,57.96 84.78,57.96 Z M84.78,56.96 C85.23,56.96 85.54,56.73 85.68,56.33 C85.76,56.08 85.78,55.85 85.78,55.44 C85.78,55.03 85.76,54.81 85.68,54.55 C85.54,54.15 85.23,53.92 84.78,53.92 C84.33,53.92 84.01,54.15 83.87,54.55 C83.79,54.81 83.77,55.03 83.77,55.44 C83.77,55.85 83.79,56.08 83.87,56.33 C84.01,56.73 84.33,56.96 84.78,56.96 Z M91.54,57.9 C91.87,57.9 92.1,57.68 92.1,57.31 L92.1,53.57 C92.1,53.2 91.87,52.98 91.54,52.98 C91.21,52.98 90.98,53.2 90.98,53.57 L90.98,55.91 C90.98,56.53 90.66,56.96 90.07,56.96 C89.46,56.96 89.18,56.53 89.18,55.91 L89.18,53.57 C89.18,53.2 88.95,52.98 88.62,52.98 C88.29,52.98 88.06,53.2 88.06,53.57 L88.06,56.17 C88.06,57.2 88.68,57.96 89.71,57.96 C90.28,57.96 90.72,57.75 90.97,57.4 L90.98,57.4 C91.03,57.69 91.21,57.9 91.54,57.9 Z M94.68,53.59 L94.69,53.59 C94.9,53.22 95.34,52.92 95.91,52.92 C96.18,52.92 96.37,52.98 96.52,53.05 C96.73,53.16 96.82,53.32 96.82,53.51 C96.82,53.84 96.6,54.08 96.27,54.08 C96.19,54.08 96.1,54.06 96.01,54.03 C95.87,53.99 95.71,53.95 95.56,53.95 C94.94,53.95 94.68,54.44 94.68,55.17 L94.68,57.31 C94.68,57.68 94.45,57.9 94.12,57.9 C93.8,57.9 93.56,57.68 93.56,57.31 L93.56,53.57 C93.56,53.2 93.79,52.98 94.12,52.98 C94.45,52.98 94.68,53.2 94.68,53.57 L94.68,53.59 Z M100.17,57.32 C100.17,57.69 100.4,57.9 100.72,57.9 C101.03,57.9 101.26,57.69 101.26,57.32 L101.26,53.08 L101.3,53.08 L103.79,57.32 C104.01,57.7 104.23,57.9 104.58,57.9 C104.98,57.9 105.24,57.63 105.24,57.19 L105.24,51.58 C105.24,51.21 105.01,51 104.7,51 C104.38,51 104.15,51.21 104.15,51.58 L104.15,55.82 L104.12,55.82 L101.62,51.58 C101.4,51.2 101.18,51 100.84,51 C100.43,51 100.17,51.27 100.17,51.71 L100.17,57.32 Z M110.78,57.05 C110.84,57.16 110.87,57.27 110.87,57.38 C110.87,57.68 110.63,57.9 110.31,57.9 C110.11,57.9 109.95,57.83 109.84,57.67 L109.68,57.43 L109.67,57.43 C109.39,57.76 108.9,57.96 108.25,57.96 C107.11,57.96 106.5,57.42 106.5,56.5 C106.5,55.46 107.23,54.96 108.42,54.96 L109.41,54.96 C109.45,54.96 109.47,54.94 109.47,54.9 L109.47,54.78 C109.47,54.22 109.15,53.89 108.39,53.89 C108.05,53.89 107.72,53.99 107.51,54.09 C107.41,54.13 107.31,54.15 107.22,54.15 C106.95,54.15 106.76,53.97 106.76,53.69 C106.76,53.53 106.84,53.35 107.04,53.25 C107.35,53.07 107.85,52.92 108.51,52.92 C109.88,52.92 110.53,53.6 110.53,54.79 L110.53,56.31 C110.53,56.56 110.56,56.66 110.63,56.79 L110.78,57.05 Z M108.41,57.05 C109.06,57.05 109.47,56.8 109.47,56.29 L109.47,55.86 C109.47,55.82 109.45,55.8 109.41,55.8 L108.61,55.8 C107.87,55.8 107.57,56.01 107.57,56.45 C107.57,56.85 107.86,57.05 108.41,57.05 Z M111.95,57.31 C111.95,57.68 112.18,57.9 112.51,57.9 C112.84,57.9 113.07,57.68 113.07,57.31 L113.07,54.97 C113.07,54.35 113.41,53.92 113.99,53.92 C114.59,53.92 114.9,54.35 114.9,54.97 L114.9,57.31 C114.9,57.68 115.13,57.9 115.46,57.9 C115.79,57.9 116.02,57.68 116.02,57.31 L116.02,54.97 C116.02,54.35 116.36,53.92 116.94,53.92 C117.54,53.92 117.85,54.35 117.85,54.97 L117.85,57.31 C117.85,57.68 118.08,57.9 118.41,57.9 C118.74,57.9 118.97,57.68 118.97,57.31 L118.97,54.71 C118.97,53.68 118.34,52.92 117.22,52.92 C116.53,52.92 116.05,53.16 115.68,53.56 L115.67,53.56 C115.38,53.15 114.92,52.92 114.35,52.92 C113.71,52.92 113.29,53.18 113.08,53.48 L113.07,53.48 C113.02,53.19 112.84,52.98 112.51,52.98 C112.18,52.98 111.95,53.2 111.95,53.57 L111.95,57.31 Z M122.31,57.96 C121.28,57.96 120.56,57.46 120.29,56.62 C120.19,56.31 120.12,55.94 120.12,55.44 C120.12,54.94 120.18,54.56 120.28,54.25 C120.55,53.41 121.29,52.92 122.25,52.92 C123.24,52.92 123.96,53.43 124.23,54.25 C124.33,54.57 124.39,54.95 124.39,55.41 C124.39,55.64 124.25,55.8 124,55.8 L121.31,55.8 C121.27,55.8 121.25,55.82 121.25,55.86 C121.25,56 121.28,56.12 121.32,56.23 C121.48,56.7 121.86,56.96 122.41,56.96 C122.82,56.96 123.09,56.84 123.4,56.63 C123.53,56.54 123.66,56.47 123.81,56.47 C124.1,56.47 124.28,56.67 124.28,56.94 C124.28,57.13 124.2,57.26 124.05,57.38 C123.62,57.73 123.09,57.96 122.31,57.96 Z M123.26,54.9 C123.26,54.73 123.24,54.61 123.2,54.49 C123.07,54.1 122.71,53.87 122.26,53.87 C121.8,53.87 121.44,54.1 121.31,54.49 C121.27,54.61 121.25,54.73 121.25,54.9 C121.25,54.94 121.27,54.96 121.31,54.96 L123.2,54.96 C123.24,54.96 123.26,54.94 123.26,54.9 Z M125.39,57.24 C125.39,57.63 125.71,57.95 126.1,57.95 C126.49,57.95 126.81,57.63 126.81,57.24 C126.81,56.85 126.49,56.53 126.1,56.53 C125.71,56.53 125.39,56.85 125.39,57.24 Z M130,57.96 C128.97,57.96 128.25,57.46 127.98,56.62 C127.88,56.31 127.81,55.94 127.81,55.44 C127.81,54.94 127.87,54.56 127.97,54.25 C128.24,53.41 128.98,52.92 129.94,52.92 C130.93,52.92 131.65,53.43 131.92,54.25 C132.02,54.57 132.08,54.95 132.08,55.41 C132.08,55.64 131.94,55.8 131.69,55.8 L129,55.8 C128.96,55.8 128.94,55.82 128.94,55.86 C128.94,56 128.97,56.12 129.01,56.23 C129.17,56.7 129.55,56.96 130.1,56.96 C130.51,56.96 130.78,56.84 131.09,56.63 C131.22,56.54 131.35,56.47 131.5,56.47 C131.79,56.47 131.97,56.67 131.97,56.94 C131.97,57.13 131.89,57.26 131.74,57.38 C131.31,57.73 130.78,57.96 130,57.96 Z M130.95,54.9 C130.95,54.73 130.93,54.61 130.89,54.49 C130.76,54.1 130.4,53.87 129.95,53.87 C129.49,53.87 129.13,54.1 129,54.49 C128.96,54.61 128.94,54.73 128.94,54.9 C128.94,54.94 128.96,54.96 129,54.96 L130.89,54.96 C130.93,54.96 130.95,54.94 130.95,54.9 Z M133.28,53.9 C133.32,53.9 133.35,53.92 133.35,53.96 L133.35,56.39 C133.35,57.44 133.75,57.91 134.8,57.91 L134.89,57.91 C135.3,57.91 135.5,57.69 135.5,57.41 C135.5,57.16 135.34,56.94 134.99,56.91 C134.58,56.87 134.47,56.75 134.47,56.36 L134.47,53.96 C134.47,53.92 134.49,53.9 134.53,53.9 L135.04,53.9 C135.32,53.9 135.5,53.73 135.5,53.47 C135.5,53.21 135.32,53.03 135.04,53.03 L134.53,53.03 C134.49,53.03 134.47,53.01 134.47,52.97 L134.47,52.09 C134.47,51.72 134.24,51.5 133.92,51.5 C133.59,51.5 133.35,51.72 133.35,52.09 L133.35,52.97 C133.35,53.01 133.32,53.03 133.28,53.03 L133.14,53.03 C132.86,53.03 132.68,53.21 132.68,53.47 C132.68,53.73 132.86,53.9 133.14,53.9 L133.28,53.9 Z M140.01,57.9 C140.34,57.9 140.57,57.68 140.57,57.31 L140.57,54.71 C140.57,53.68 139.93,52.92 138.9,52.92 C138.33,52.92 137.88,53.13 137.63,53.48 L137.62,53.48 L137.62,51.59 C137.62,51.22 137.39,51 137.06,51 C136.73,51 136.5,51.22 136.5,51.59 L136.5,57.31 C136.5,57.68 136.73,57.9 137.06,57.9 C137.39,57.9 137.62,57.68 137.62,57.31 L137.62,54.97 C137.62,54.35 137.95,53.92 138.54,53.92 C139.15,53.92 139.45,54.35 139.45,54.97 L139.45,57.31 C139.45,57.68 139.68,57.9 140.01,57.9 Z" id="Your-Name.eth" fill="#3F335D"></path>
            <path d="M79.48,105.9 C79.82,105.9 80.07,105.66 80.07,105.28 L80.07,103.07 L81.87,99.85 C81.93,99.74 81.96,99.63 81.96,99.53 C81.96,99.22 81.74,99 81.42,99 C81.2,99 81.02,99.11 80.9,99.34 L79.51,101.9 L79.48,101.9 L78.08,99.34 C77.96,99.12 77.79,99 77.56,99 C77.24,99 77,99.22 77,99.53 C77,99.63 77.03,99.74 77.09,99.85 L78.89,103.07 L78.89,105.28 C78.89,105.66 79.14,105.9 79.48,105.9 Z M84.78,105.96 C83.8,105.96 83.06,105.47 82.79,104.63 C82.68,104.29 82.63,103.97 82.63,103.44 C82.63,102.91 82.68,102.59 82.79,102.25 C83.06,101.41 83.8,100.92 84.78,100.92 C85.75,100.92 86.49,101.41 86.76,102.25 C86.87,102.59 86.92,102.91 86.92,103.44 C86.92,103.97 86.87,104.29 86.76,104.63 C86.49,105.47 85.75,105.96 84.78,105.96 Z M84.78,104.96 C85.23,104.96 85.54,104.73 85.68,104.33 C85.76,104.08 85.78,103.85 85.78,103.44 C85.78,103.03 85.76,102.81 85.68,102.55 C85.54,102.15 85.23,101.92 84.78,101.92 C84.33,101.92 84.01,102.15 83.87,102.55 C83.79,102.81 83.77,103.03 83.77,103.44 C83.77,103.85 83.79,104.08 83.87,104.33 C84.01,104.73 84.33,104.96 84.78,104.96 Z M91.54,105.9 C91.87,105.9 92.1,105.68 92.1,105.31 L92.1,101.57 C92.1,101.2 91.87,100.98 91.54,100.98 C91.21,100.98 90.98,101.2 90.98,101.57 L90.98,103.91 C90.98,104.53 90.66,104.96 90.07,104.96 C89.46,104.96 89.18,104.53 89.18,103.91 L89.18,101.57 C89.18,101.2 88.95,100.98 88.62,100.98 C88.29,100.98 88.06,101.2 88.06,101.57 L88.06,104.17 C88.06,105.2 88.68,105.96 89.71,105.96 C90.28,105.96 90.72,105.75 90.97,105.4 L90.98,105.4 C91.03,105.69 91.21,105.9 91.54,105.9 Z M94.68,101.59 L94.69,101.59 C94.9,101.22 95.34,100.92 95.91,100.92 C96.18,100.92 96.37,100.98 96.52,101.05 C96.73,101.16 96.82,101.32 96.82,101.51 C96.82,101.84 96.6,102.08 96.27,102.08 C96.19,102.08 96.1,102.06 96.01,102.03 C95.87,101.99 95.71,101.95 95.56,101.95 C94.94,101.95 94.68,102.44 94.68,103.17 L94.68,105.31 C94.68,105.68 94.45,105.9 94.12,105.9 C93.8,105.9 93.56,105.68 93.56,105.31 L93.56,101.57 C93.56,101.2 93.79,100.98 94.12,100.98 C94.45,100.98 94.68,101.2 94.68,101.57 L94.68,101.59 Z M100.17,105.32 C100.17,105.69 100.4,105.9 100.72,105.9 C101.03,105.9 101.26,105.69 101.26,105.32 L101.26,101.08 L101.3,101.08 L103.79,105.32 C104.01,105.7 104.23,105.9 104.58,105.9 C104.98,105.9 105.24,105.63 105.24,105.19 L105.24,99.58 C105.24,99.21 105.01,99 104.7,99 C104.38,99 104.15,99.21 104.15,99.58 L104.15,103.82 L104.12,103.82 L101.62,99.58 C101.4,99.2 101.18,99 100.84,99 C100.43,99 100.17,99.27 100.17,99.71 L100.17,105.32 Z M110.78,105.05 C110.84,105.16 110.87,105.27 110.87,105.38 C110.87,105.68 110.63,105.9 110.31,105.9 C110.11,105.9 109.95,105.83 109.84,105.67 L109.68,105.43 L109.67,105.43 C109.39,105.76 108.9,105.96 108.25,105.96 C107.11,105.96 106.5,105.42 106.5,104.5 C106.5,103.46 107.23,102.96 108.42,102.96 L109.41,102.96 C109.45,102.96 109.47,102.94 109.47,102.9 L109.47,102.78 C109.47,102.22 109.15,101.89 108.39,101.89 C108.05,101.89 107.72,101.99 107.51,102.09 C107.41,102.13 107.31,102.15 107.22,102.15 C106.95,102.15 106.76,101.97 106.76,101.69 C106.76,101.53 106.84,101.35 107.04,101.25 C107.35,101.07 107.85,100.92 108.51,100.92 C109.88,100.92 110.53,101.6 110.53,102.79 L110.53,104.31 C110.53,104.56 110.56,104.66 110.63,104.79 L110.78,105.05 Z M108.41,105.05 C109.06,105.05 109.47,104.8 109.47,104.29 L109.47,103.86 C109.47,103.82 109.45,103.8 109.41,103.8 L108.61,103.8 C107.87,103.8 107.57,104.01 107.57,104.45 C107.57,104.85 107.86,105.05 108.41,105.05 Z M111.95,105.31 C111.95,105.68 112.18,105.9 112.51,105.9 C112.84,105.9 113.07,105.68 113.07,105.31 L113.07,102.97 C113.07,102.35 113.41,101.92 113.99,101.92 C114.59,101.92 114.9,102.35 114.9,102.97 L114.9,105.31 C114.9,105.68 115.13,105.9 115.46,105.9 C115.79,105.9 116.02,105.68 116.02,105.31 L116.02,102.97 C116.02,102.35 116.36,101.92 116.94,101.92 C117.54,101.92 117.85,102.35 117.85,102.97 L117.85,105.31 C117.85,105.68 118.08,105.9 118.41,105.9 C118.74,105.9 118.97,105.68 118.97,105.31 L118.97,102.71 C118.97,101.68 118.34,100.92 117.22,100.92 C116.53,100.92 116.05,101.16 115.68,101.56 L115.67,101.56 C115.38,101.15 114.92,100.92 114.35,100.92 C113.71,100.92 113.29,101.18 113.08,101.48 L113.07,101.48 C113.02,101.19 112.84,100.98 112.51,100.98 C112.18,100.98 111.95,101.2 111.95,101.57 L111.95,105.31 Z M122.31,105.96 C121.28,105.96 120.56,105.46 120.29,104.62 C120.19,104.31 120.12,103.94 120.12,103.44 C120.12,102.94 120.18,102.56 120.28,102.25 C120.55,101.41 121.29,100.92 122.25,100.92 C123.24,100.92 123.96,101.43 124.23,102.25 C124.33,102.57 124.39,102.95 124.39,103.41 C124.39,103.64 124.25,103.8 124,103.8 L121.31,103.8 C121.27,103.8 121.25,103.82 121.25,103.86 C121.25,104 121.28,104.12 121.32,104.23 C121.48,104.7 121.86,104.96 122.41,104.96 C122.82,104.96 123.09,104.84 123.4,104.63 C123.53,104.54 123.66,104.47 123.81,104.47 C124.1,104.47 124.28,104.67 124.28,104.94 C124.28,105.13 124.2,105.26 124.05,105.38 C123.62,105.73 123.09,105.96 122.31,105.96 Z M123.26,102.9 C123.26,102.73 123.24,102.61 123.2,102.49 C123.07,102.1 122.71,101.87 122.26,101.87 C121.8,101.87 121.44,102.1 121.31,102.49 C121.27,102.61 121.25,102.73 121.25,102.9 C121.25,102.94 121.27,102.96 121.31,102.96 L123.2,102.96 C123.24,102.96 123.26,102.94 123.26,102.9 Z M125.39,105.24 C125.39,105.63 125.71,105.95 126.1,105.95 C126.49,105.95 126.81,105.63 126.81,105.24 C126.81,104.85 126.49,104.53 126.1,104.53 C125.71,104.53 125.39,104.85 125.39,105.24 Z M131.5,99 C131.83,99 132.06,99.22 132.06,99.59 L132.06,105.31 C132.06,105.68 131.83,105.9 131.5,105.9 C131.17,105.9 130.99,105.7 130.94,105.39 L130.93,105.39 C130.7,105.72 130.31,105.96 129.63,105.96 C128.83,105.96 128.23,105.5 127.98,104.74 C127.86,104.37 127.81,103.98 127.81,103.44 C127.81,102.9 127.86,102.51 127.98,102.14 C128.23,101.38 128.83,100.92 129.63,100.92 C130.31,100.92 130.72,101.18 130.93,101.49 L130.94,101.49 L130.94,99.59 C130.94,99.22 131.17,99 131.5,99 Z M129.94,101.92 C129.52,101.92 129.2,102.1 129.05,102.56 C128.98,102.77 128.95,103.06 128.95,103.44 C128.95,103.82 128.98,104.11 129.05,104.32 C129.2,104.78 129.52,104.96 129.94,104.96 C130.37,104.96 130.69,104.78 130.84,104.32 C130.91,104.11 130.94,103.82 130.94,103.44 C130.94,103.06 130.91,102.77 130.84,102.56 C130.69,102.1 130.37,101.92 129.94,101.92 Z M137.58,105.05 C137.64,105.16 137.67,105.27 137.67,105.38 C137.67,105.68 137.43,105.9 137.11,105.9 C136.91,105.9 136.75,105.83 136.64,105.67 L136.48,105.43 L136.47,105.43 C136.19,105.76 135.7,105.96 135.05,105.96 C133.91,105.96 133.3,105.42 133.3,104.5 C133.3,103.46 134.03,102.96 135.22,102.96 L136.21,102.96 C136.25,102.96 136.27,102.94 136.27,102.9 L136.27,102.78 C136.27,102.22 135.95,101.89 135.19,101.89 C134.85,101.89 134.52,101.99 134.31,102.09 C134.21,102.13 134.11,102.15 134.02,102.15 C133.75,102.15 133.56,101.97 133.56,101.69 C133.56,101.53 133.64,101.35 133.84,101.25 C134.15,101.07 134.65,100.92 135.31,100.92 C136.68,100.92 137.33,101.6 137.33,102.79 L137.33,104.31 C137.33,104.56 137.36,104.66 137.43,104.79 L137.58,105.05 Z M135.21,105.05 C135.86,105.05 136.27,104.8 136.27,104.29 L136.27,103.86 C136.27,103.82 136.25,103.8 136.21,103.8 L135.41,103.8 C134.67,103.8 134.37,104.01 134.37,104.45 C134.37,104.85 134.66,105.05 135.21,105.05 Z M140.64,105.96 C139.66,105.96 138.92,105.47 138.65,104.63 C138.54,104.29 138.49,103.97 138.49,103.44 C138.49,102.91 138.54,102.59 138.65,102.25 C138.92,101.41 139.66,100.92 140.64,100.92 C141.61,100.92 142.35,101.41 142.62,102.25 C142.73,102.59 142.78,102.91 142.78,103.44 C142.78,103.97 142.73,104.29 142.62,104.63 C142.35,105.47 141.61,105.96 140.64,105.96 Z M140.64,104.96 C141.09,104.96 141.4,104.73 141.54,104.33 C141.62,104.08 141.64,103.85 141.64,103.44 C141.64,103.03 141.62,102.81 141.54,102.55 C141.4,102.15 141.09,101.92 140.64,101.92 C140.19,101.92 139.87,102.15 139.73,102.55 C139.65,102.81 139.63,103.03 139.63,103.44 C139.63,103.85 139.65,104.08 139.73,104.33 C139.87,104.73 140.19,104.96 140.64,104.96 Z" id="Your-Name.dao" fill="#3F335D"></path>
            <path d="M173.574835,81.6200034 L165.122347,73.1666869 C164.86337,72.9077104 164.513973,72.7649697 164.152842,72.7649697 C164.093481,72.7649697 164.033569,72.768835 163.974071,72.7767037 C163.551232,72.8321987 163.178505,73.0812357 162.965498,73.4505118 L160.123936,78.3707879 L152,58 L172.368717,66.1250404 L167.448027,68.9671549 C167.078889,69.1801616 166.829852,69.5528889 166.774357,69.9757273 C166.718724,70.3981515 166.862707,70.8225084 167.164202,71.1240034 L175.617104,79.5773199 L173.574835,81.6200034 Z" id="Path" fill="#FFFFFF"></path>
            <path d="M184.352293,79.4345882 L176.193155,71.2751741 L182.014051,67.9127599 C182.468916,67.6499182 182.73369,67.1506017 182.695727,66.6267128 C182.65804,66.1026859 182.32438,65.6464401 181.836384,65.4519317 L155.879104,55.0977061 C155.370125,54.8945007 154.789222,55.0141876 154.401724,55.4015478 C154.014226,55.7891842 153.894539,56.3700865 154.097606,56.8789283 L164.450313,82.8391067 C164.64496,83.3269653 165.101205,83.6607633 165.625232,83.6985882 C166.149259,83.7366892 166.648576,83.4717768 166.911279,83.0167734 L170.273141,77.1958778 L178.432003,85.35543 C178.689047,85.6127498 179.037892,85.7571472 179.401508,85.7571472 C179.765125,85.7571472 180.113832,85.6127498 180.370875,85.35543 L184.352293,81.3735983 C184.887778,80.8381135 184.887778,79.9700731 184.352293,79.4345882 Z" id="Path" fill="#EBD6FE"></path>
            <g id="cursor" transform="translate(148.000000, 54.000000)" fill-rule="nonzero" fill="#3F335D">
                <path d="M30.5964882,24.677303 L22.4373502,16.5178889 L28.2582458,13.1554747 C28.7131111,12.892633 28.9778855,12.3933165 28.9399226,11.8694276 C28.9022357,11.3454007 28.5685758,10.8891549 28.0805791,10.6946465 L2.12329966,0.340420875 C1.61431987,0.137215488 1.03341751,0.256902357 0.645919192,0.644262626 C0.258420875,1.03189899 0.138734007,1.61280135 0.341801347,2.1216431 L10.6945084,28.0818215 C10.8891549,28.5696801 11.3454007,28.9034781 11.8694276,28.941303 C12.3934545,28.979404 12.892771,28.7144916 13.1554747,28.2594882 L16.5173367,22.4385926 L24.6761987,30.5981448 C24.9332424,30.8554646 25.2820875,30.999862 25.6457037,30.999862 C26.0093199,30.999862 26.3580269,30.8554646 26.6150707,30.5981448 L30.5964882,26.6163131 C31.1319731,26.0808283 31.1319731,25.2127879 30.5964882,24.677303 Z M25.6457037,27.6899057 L17.1932155,19.2365892 C16.9342391,18.9776128 16.5848418,18.8348721 16.2237104,18.8348721 C16.1643502,18.8348721 16.1044377,18.8387374 16.0449394,18.8466061 C15.622101,18.902101 15.2493737,19.151138 15.036367,19.5204141 L12.1948047,24.4406902 L4.07086869,4.06990236 L24.4395859,12.1949428 L19.5188956,15.0370572 C19.1497576,15.250064 18.9007205,15.6227912 18.8452256,16.0456296 C18.7895926,16.4680539 18.9335758,16.8924108 19.2350707,17.1939057 L27.6879731,25.6472222 L25.6457037,27.6899057 Z" id="Shape"></path>
            </g>
            <g id="Group-2" transform="translate(54.000000, 81.000000)" fill="#7100D8">
                <path d="M0,2.89655318 L5.06255624,0.00258352333 L5.06772036,2.16893137 L1.90943234,3.97400947 L1.91459646,6.16449844 L3.4117601,5.30854751 L4.64813583,6.00398117 L3.28480889,6.78284992 L1.9180392,7.56468338 L1.9180392,7.56595396 L0.0133406361,8.65442199 L0,2.89655318 Z M5.91033215,0 L10.5614804,2.62460559 L8.65678182,3.71349714 L5.91549626,2.16634784 L5.91033215,0 Z M0.438433551,9.37539441 L2.34313212,8.28692638 L5.08484801,9.83407568 L5.09001213,12 L0.438433551,9.37539441 Z M9.08239114,4.43421545 L10.9866594,3.34532389 L11,9.10361623 L5.93787411,11.9975859 L5.93270999,9.83123804 L9.09056766,8.02615994 L9.08540354,5.83524745 L7.58867024,6.69119837 L6.35918,5.99195296 L9.08239114,4.43548603 L9.08239114,4.43421545 Z" id="Combined-Shape"></path>
            </g>
        </g>
    </g>
</svg>